<svg xmlns="http://www.w3.org/2000/svg" viewBox="0 0 1000 520" width="1000" height="520" style="background:#0f172a; font-family:-apple-system,BlinkMacSystemFont,'Segoe UI','PingFang SC','Hiragino Sans GB','Microsoft YaHei',Roboto,sans-serif;">
  <defs>
    <marker id="arrow" viewBox="0 0 10 10" refX="6" refY="5" markerWidth="6" markerHeight="6" orient="auto-start-reverse">
      <path d="M 0 1 L 10 5 L 0 9 z" fill="#38bdf8"/>
    </marker>
    <marker id="arrowGreen" viewBox="0 0 10 10" refX="6" refY="5" markerWidth="6" markerHeight="6" orient="auto-start-reverse">
      <path d="M 0 1 L 10 5 L 0 9 z" fill="#10b981"/>
    </marker>
    <marker id="arrowRed" viewBox="0 0 10 10" refX="6" refY="5" markerWidth="6" markerHeight="6" orient="auto-start-reverse">
      <path d="M 0 1 L 10 5 L 0 9 z" fill="#ef4444"/>
    </marker>
  </defs>

  <text x="500" y="45" text-anchor="middle" fill="#f8fafc" font-size="24" font-weight="bold">AI AGENT 自主验证与自愈修复循环</text>
  <text x="500" y="72" text-anchor="middle" fill="#94a3b8" font-size="14">自我纠错闭环：“允许 AI 产生差错，但不允许错误通过工程门禁”</text>

  <!-- Step 1 -->
  <g transform="translate(60, 110)">
    <rect x="0" y="0" width="190" height="70" rx="10" fill="#1e293b" stroke="#38bdf8" stroke-width="2"/>
    <text x="95" y="32" text-anchor="middle" fill="#f8fafc" font-weight="bold" font-size="14">1. 读取项目上下文</text>
    <text x="95" y="52" text-anchor="middle" fill="#94a3b8" font-size="11">AGENTS.md 与架构规则</text>
  </g>

  <path d="M 250 145 L 290 145" stroke="#38bdf8" stroke-width="2" marker-end="url(#arrow)"/>

  <!-- Step 2 -->
  <g transform="translate(300, 110)">
    <rect x="0" y="0" width="190" height="70" rx="10" fill="#1e293b" stroke="#38bdf8" stroke-width="2"/>
    <text x="95" y="32" text-anchor="middle" fill="#f8fafc" font-weight="bold" font-size="14">2. 检索并实现需求</text>
    <text x="95" y="52" text-anchor="middle" fill="#94a3b8" font-size="11">专注最小范围原子变更</text>
  </g>

  <path d="M 490 145 L 530 145" stroke="#38bdf8" stroke-width="2" marker-end="url(#arrow)"/>

  <!-- Step 3 -->
  <g transform="translate(540, 110)">
    <rect x="0" y="0" width="200" height="70" rx="10" fill="#1e293b" stroke="#f59e0b" stroke-width="2"/>
    <text x="100" y="32" text-anchor="middle" fill="#f8fafc" font-weight="bold" font-size="14">3. 执行统一质量门禁</text>
    <text x="100" y="52" text-anchor="middle" fill="#fbbf24" font-size="11">npm run quality</text>
  </g>

  <path d="M 740 145 L 800 145" stroke="#38bdf8" stroke-width="2" marker-end="url(#arrow)"/>

  <!-- Decision -->
  <g transform="translate(850, 145)">
    <polygon points="0,-45 45,0 0,45 -45,0" fill="#334155" stroke="#f8fafc" stroke-width="2"/>
    <text x="0" y="5" text-anchor="middle" fill="#f8fafc" font-size="12" font-weight="bold">门禁通过？</text>
  </g>

  <!-- Branch YES -->
  <path d="M 850 190 L 850 340" stroke="#10b981" stroke-width="2.5" marker-end="url(#arrowGreen)"/>
  <text x="865" y="260" fill="#10b981" font-weight="bold" font-size="14">通过 (PASS)</text>

  <g transform="translate(740, 350)">
    <rect x="0" y="0" width="220" height="80" rx="12" fill="#064e3b" stroke="#10b981" stroke-width="2"/>
    <text x="110" y="35" text-anchor="middle" fill="#a7f3d0" font-weight="bold" font-size="15">提交 COMMIT 并推送</text>
    <text x="110" y="58" text-anchor="middle" fill="#6ee7b7" font-size="12">发起 Pull Request</text>
  </g>

  <!-- Branch NO -->
  <path d="M 805 145 L 640 145 L 640 280" stroke="#ef4444" stroke-width="2.5" marker-end="url(#arrowRed)"/>
  <text x="730" y="135" fill="#ef4444" font-weight="bold" font-size="14">未通过 (FAIL)</text>

  <!-- Repair Box -->
  <g transform="translate(480, 290)">
    <rect x="0" y="0" width="320" height="110" rx="12" fill="#450a0a" stroke="#ef4444" stroke-width="2"/>
    <text x="160" y="30" text-anchor="middle" fill="#fecaca" font-weight="bold" font-size="14">4. 自主根因分析与修复</text>
    <text x="20" y="55" fill="#fca5a5" font-size="12">• 检查结构化报错类别与堆栈诊断信息</text>
    <text x="20" y="73" fill="#fca5a5" font-size="12">• 严禁投机绕过（禁止加 any、禁止加 ignore、禁止删测试）</text>
    <text x="20" y="91" fill="#fca5a5" font-size="12">• 寻找根本原因，实施架构级语义修复</text>
  </g>

  <!-- Loop back -->
  <path d="M 480 345 L 395 345 L 395 190" stroke="#ef4444" stroke-width="2.5" marker-end="url(#arrowRed)"/>
  <text x="405" y="270" fill="#ef4444" font-size="12" font-weight="bold">自愈闭环</text>
</svg>